<?xml version="1.0" ?>
<!DOCTYPE svg  PUBLIC '-//W3C//DTD SVG 1.1//EN'  'http://www.w3.org/Graphics/SVG/1.1/DTD/svg11.dtd'>
<!-- Uploaded to: SVG Repo, www.svgrepo.com, Generator: SVG Repo Mixer Tools -->
<svg width="800px" height="800px" viewBox="0 0 512 512" enable-background="new 0 0 512 512" id="Layer_1" version="1.1" xml:space="preserve" xmlns="http://www.w3.org/2000/svg" xmlns:xlink="http://www.w3.org/1999/xlink">
<g>
<g>
<path d="M376.289,480.643H135.711c-12.131,0-22-9.869-22-22v-337.76c0-12.131,9.869-22,22-22h64.959    c5.522,0,10,4.477,10,10v11.33c0,1.103,0.897,2,2,2h86.66c1.103,0,2-0.897,2-2v-11.33c0-5.523,4.478-10,10-10h64.959    c12.131,0,22,9.869,22,22v337.76C398.289,470.774,388.42,480.643,376.289,480.643z M135.711,118.883c-1.103,0-2,0.897-2,2v337.76    c0,1.103,0.897,2,2,2h240.578c1.103,0,2-0.897,2-2v-337.76c0-1.103-0.897-2-2-2H321.33v1.33c0,12.131-9.869,22-22,22h-86.66    c-12.131,0-22-9.869-22-22v-1.33H135.711z" fill="#444B54"/>
</g>
<g>
<path d="M299.33,142.213h-86.66c-12.131,0-22-9.869-22-22v-22.67c0-12.131,9.869-22,22-22h86.66    c12.131,0,22,9.869,22,22v22.67C321.33,132.344,311.461,142.213,299.33,142.213z M212.67,95.543c-1.103,0-2,0.897-2,2v22.67    c0,1.103,0.897,2,2,2h86.66c1.103,0,2-0.897,2-2v-22.67c0-1.103-0.897-2-2-2H212.67z" fill="#444B54"/>
</g>
<g>
<path d="M256,95.543c-17.696,0-32.094-14.397-32.094-32.093c0-17.696,14.397-32.093,32.094-32.093    s32.094,14.397,32.094,32.093C288.094,81.146,273.696,95.543,256,95.543z M256,51.357c-6.669,0-12.094,5.425-12.094,12.093    c0,6.668,5.425,12.093,12.094,12.093s12.094-5.425,12.094-12.093C268.094,56.782,262.669,51.357,256,51.357z" fill="#444B54"/>
</g>
<g>
<path d="M213.23,264.689h-50.668c-5.522,0-10-4.477-10-10v-52c0-5.523,4.478-10,10-10h50.668    c5.522,0,10,4.477,10,10v52C223.23,260.212,218.753,264.689,213.23,264.689z M172.563,244.689h30.668v-32h-30.668V244.689z" fill="#444B54"/>
</g>
<g>
<path d="M357.896,216.022H248.563c-5.522,0-10-4.477-10-10s4.478-10,10-10h109.334c5.522,0,10,4.477,10,10    S363.419,216.022,357.896,216.022z" fill="#444B54"/>
</g>
<g>
<path d="M298.563,264.689h-50c-5.522,0-10-4.477-10-10s4.478-10,10-10h50c5.522,0,10,4.477,10,10    S304.085,264.689,298.563,264.689z" fill="#444B54"/>
</g>
<g>
<path d="M213.23,399.356h-50.668c-5.522,0-10-4.477-10-10v-52c0-5.523,4.478-10,10-10h50.668    c5.522,0,10,4.477,10,10v52C223.23,394.879,218.753,399.356,213.23,399.356z M172.563,379.356h30.668v-32h-30.668V379.356z" fill="#444B54"/>
</g>
<g>
<path d="M357.896,350.689H248.563c-5.522,0-10-4.477-10-10s4.478-10,10-10h109.334c5.522,0,10,4.477,10,10    S363.419,350.689,357.896,350.689z" fill="#444B54"/>
</g>
<g>
<path d="M298.563,399.356h-50c-5.522,0-10-4.477-10-10s4.478-10,10-10h50c5.522,0,10,4.477,10,10    S304.085,399.356,298.563,399.356z" fill="#444B54"/>
</g>
<g>
<path d="M181.9,380.022c-2.776,0-5.539-1.149-7.516-3.399l-19.334-22c-3.646-4.148-3.238-10.467,0.91-14.113    c4.148-3.646,10.466-3.238,14.113,0.911l12.734,14.49l41.822-36.735c4.151-3.646,10.467-3.236,14.113,0.914    c3.645,4.149,3.235,10.468-0.914,14.112l-49.334,43.333C186.597,379.203,184.244,380.022,181.9,380.022z" fill="#444B54"/>
</g>
<g>
<path d="M388.289,120.883v337.76c0,6.62-5.369,12-12,12H135.711c-6.621,0-12-5.38-12-12v-337.76    c0-6.63,5.379-12,12-12h64.959v11.33c0,6.63,5.369,12,12,12h86.66c6.631,0,12-5.37,12-12v-11.33h64.959    C382.92,108.883,388.289,114.253,388.289,120.883z" fill="#65A0D6"/>
<path d="M376.289,480.643H135.711c-12.131,0-22-9.869-22-22v-337.76c0-12.131,9.869-22,22-22h64.959    c5.522,0,10,4.477,10,10v11.33c0,1.103,0.897,2,2,2h86.66c1.103,0,2-0.897,2-2v-11.33c0-5.523,4.478-10,10-10h64.959    c12.131,0,22,9.869,22,22v337.76C398.289,470.774,388.42,480.643,376.289,480.643z M135.711,118.883c-1.103,0-2,0.897-2,2v337.76    c0,1.103,0.897,2,2,2h240.578c1.103,0,2-0.897,2-2v-337.76c0-1.103-0.897-2-2-2H321.33v1.33c0,12.131-9.869,22-22,22h-86.66    c-12.131,0-22-9.869-22-22v-1.33H135.711z" fill="#444B54"/>
</g>
<g>
<path d="M311.33,97.543v22.67c0,6.63-5.369,12-12,12h-86.66c-6.631,0-12-5.37-12-12v-22.67c0-6.62,5.369-12,12-12    h86.66C305.961,85.543,311.33,90.923,311.33,97.543z" fill="#D9DCE1"/>
<path d="M299.33,142.213h-86.66c-12.131,0-22-9.869-22-22v-22.67c0-12.131,9.869-22,22-22h86.66    c12.131,0,22,9.869,22,22v22.67C321.33,132.344,311.461,142.213,299.33,142.213z M212.67,95.543c-1.103,0-2,0.897-2,2v22.67    c0,1.103,0.897,2,2,2h86.66c1.103,0,2-0.897,2-2v-22.67c0-1.103-0.897-2-2-2H212.67z" fill="#444B54"/>
</g>
<g>
<path d="M256,95.543c-17.696,0-32.094-14.397-32.094-32.093c0-17.696,14.397-32.093,32.094-32.093    s32.094,14.397,32.094,32.093C288.094,81.146,273.696,95.543,256,95.543z M256,51.357c-6.669,0-12.094,5.425-12.094,12.093    c0,6.668,5.425,12.093,12.094,12.093s12.094-5.425,12.094-12.093C268.094,56.782,262.669,51.357,256,51.357z" fill="#444B54"/>
</g>
<g>
<rect fill="#D9DCE1" height="52" width="50.668" x="162.563" y="202.689"/>
<path d="M213.23,264.689h-50.668c-5.522,0-10-4.477-10-10v-52c0-5.523,4.478-10,10-10h50.668    c5.522,0,10,4.477,10,10v52C223.23,260.212,218.753,264.689,213.23,264.689z M172.563,244.689h30.668v-32h-30.668V244.689z" fill="#444B54"/>
</g>
<g>
<path d="M357.896,216.022H248.563c-5.522,0-10-4.477-10-10s4.478-10,10-10h109.334c5.522,0,10,4.477,10,10    S363.419,216.022,357.896,216.022z" fill="#444B54"/>
</g>
<g>
<path d="M298.563,264.689h-50c-5.522,0-10-4.477-10-10s4.478-10,10-10h50c5.522,0,10,4.477,10,10    S304.085,264.689,298.563,264.689z" fill="#444B54"/>
</g>
<g>
<path d="M213.23,399.356h-50.668c-5.522,0-10-4.477-10-10v-52c0-5.523,4.478-10,10-10h50.668    c5.522,0,10,4.477,10,10v52C223.23,394.879,218.753,399.356,213.23,399.356z M172.563,379.356h30.668v-32h-30.668V379.356z" fill="#444B54"/>
</g>
<g>
<path d="M357.896,350.689H248.563c-5.522,0-10-4.477-10-10s4.478-10,10-10h109.334c5.522,0,10,4.477,10,10    S363.419,350.689,357.896,350.689z" fill="#444B54"/>
</g>
<g>
<path d="M298.563,399.356h-50c-5.522,0-10-4.477-10-10s4.478-10,10-10h50c5.522,0,10,4.477,10,10    S304.085,399.356,298.563,399.356z" fill="#444B54"/>
</g>
<g>
<path d="M181.9,380.022c-2.776,0-5.539-1.149-7.516-3.399l-19.334-22c-3.646-4.148-3.238-10.467,0.91-14.113    c4.148-3.646,10.466-3.238,14.113,0.911l12.734,14.49l41.822-36.735c4.151-3.646,10.467-3.236,14.113,0.914    c3.645,4.149,3.235,10.468-0.914,14.112l-49.334,43.333C186.597,379.203,184.244,380.022,181.9,380.022z" fill="#444B54"/>
</g>
</g>
</svg>